<svg width="96" height="24" viewBox="0 0 328 47" fill="none" xmlns="http://www.w3.org/2000/svg">
<path d="M163.174 46.9999C160.6 46.9999 158.434 46.5495 156.675 45.6487C154.917 44.7479 153.608 43.4181 152.75 41.6594C151.892 39.9007 151.463 37.7559 151.463 35.225V20.0398H147.603C146.745 20.0398 146.08 19.8254 145.608 19.3964C145.136 18.9246 144.9 18.3026 144.9 17.5304C144.9 16.7154 145.136 16.0934 145.608 15.6645C146.08 15.2355 146.745 15.021 147.603 15.021H151.463V8.3936C151.463 7.3212 151.742 6.50618 152.3 5.94853C152.9 5.39088 153.716 5.11206 154.745 5.11206C155.775 5.11206 156.568 5.39088 157.126 5.94853C157.683 6.50618 157.962 7.3212 157.962 8.3936V15.021H165.49C166.348 15.021 167.013 15.2355 167.485 15.6645C167.957 16.0934 168.193 16.7154 168.193 17.5304C168.193 18.3026 167.957 18.9246 167.485 19.3964C167.013 19.8254 166.348 20.0398 165.49 20.0398H157.962V34.7103C157.962 36.9837 158.434 38.6996 159.378 39.8578C160.364 41.016 161.952 41.5951 164.139 41.5951C164.911 41.5951 165.576 41.5307 166.134 41.402C166.734 41.2304 167.228 41.1232 167.614 41.0803C168.086 41.0803 168.472 41.2519 168.772 41.5951C169.072 41.8953 169.222 42.4959 169.222 43.3967C169.222 44.0401 169.094 44.6407 168.836 45.1983C168.622 45.756 168.214 46.1206 167.614 46.2922C167.099 46.4637 166.391 46.6139 165.49 46.7426C164.633 46.9141 163.86 46.9999 163.174 46.9999Z" fill="#24666B"/>
<path d="M113.925 46.8713C112.896 46.8713 112.102 46.5925 111.544 46.0348C110.987 45.4343 110.708 44.6192 110.708 43.5897V17.8522C110.708 16.7798 110.987 15.9648 111.544 15.4071C112.102 14.8495 112.874 14.5706 113.861 14.5706C114.89 14.5706 115.662 14.8495 116.177 15.4071C116.735 15.9648 117.014 16.7798 117.014 17.8522V22.871L116.306 21.7128C117.25 19.3106 118.73 17.509 120.746 16.3079C122.762 15.0639 125.078 14.442 127.695 14.442C130.183 14.442 132.242 14.9138 133.872 15.8575C135.545 16.7583 136.789 18.1525 137.604 20.0399C138.419 21.8844 138.826 24.2222 138.826 27.0534V43.5897C138.826 44.6192 138.547 45.4343 137.99 46.0348C137.432 46.5925 136.639 46.8713 135.609 46.8713C134.537 46.8713 133.722 46.5925 133.164 46.0348C132.606 45.4343 132.328 44.6192 132.328 43.5897V27.4394C132.328 24.737 131.791 22.7638 130.719 21.5198C129.689 20.2758 128.059 19.6538 125.829 19.6538C123.212 19.6538 121.11 20.4688 119.523 22.0989C117.979 23.7289 117.207 25.9166 117.207 28.662V43.5897C117.207 45.7774 116.113 46.8713 113.925 46.8713Z" fill="#24666B"/>
<path d="M88.8707 47C85.4391 47 82.4792 46.3565 79.9913 45.0697C77.5462 43.7399 75.6373 41.8739 74.2647 39.4717C72.9349 37.0267 72.27 34.1312 72.27 30.7853C72.27 27.5252 72.9349 24.6726 74.2647 22.2276C75.5944 19.7825 77.4175 17.8736 79.7339 16.501C82.0503 15.1283 84.6884 14.442 87.6482 14.442C89.8359 14.442 91.7877 14.8066 93.5035 15.5358C95.2193 16.2221 96.6778 17.2516 97.8789 18.6243C99.1229 19.9541 100.045 21.5841 100.646 23.5144C101.289 25.4448 101.611 27.611 101.611 30.0132C101.611 30.7424 101.396 31.3001 100.967 31.6861C100.538 32.0293 99.895 32.2009 99.0371 32.2009H77.4175V28.2115H97.2355L96.1416 29.1124C96.1416 26.9676 95.8199 25.1445 95.1764 23.6431C94.5759 22.1418 93.6536 21.005 92.4097 20.2329C91.2086 19.4179 89.7072 19.0104 87.9056 19.0104C85.8895 19.0104 84.1736 19.4822 82.7581 20.4259C81.3854 21.3696 80.3345 22.678 79.6052 24.3509C78.876 26.0239 78.5114 27.9756 78.5114 30.2062V30.5923C78.5114 34.3671 79.3907 37.2197 81.1495 39.15C82.9511 41.0374 85.5463 41.9811 88.9351 41.9811C90.222 41.9811 91.5732 41.8096 92.9888 41.4664C94.4472 41.1232 95.8199 40.5441 97.1068 39.7291C97.836 39.3001 98.4794 39.1071 99.0371 39.15C99.6376 39.1929 100.109 39.3859 100.453 39.7291C100.839 40.0723 101.075 40.5012 101.16 41.016C101.246 41.5307 101.16 42.0669 100.903 42.6246C100.646 43.1393 100.195 43.6112 99.5518 44.0402C98.0934 45.0268 96.399 45.7774 94.4687 46.2922C92.5384 46.764 90.6724 47 88.8707 47Z" fill="#24666B"/>
<path d="M51.4234 46.8712C50.5226 46.8712 49.729 46.6353 49.0427 46.1634C48.3992 45.6916 47.863 44.9623 47.4341 43.9757L36.6887 19.0103C36.3455 18.2382 36.2168 17.5089 36.3026 16.8226C36.3884 16.1363 36.7101 15.6001 37.2678 15.214C37.8254 14.785 38.5761 14.5706 39.5198 14.5706C40.3348 14.5706 40.9783 14.7636 41.4501 15.1496C41.922 15.5357 42.3509 16.2006 42.737 17.1443L52.4529 41.0802H50.6513L60.5602 17.1443C60.9463 16.2006 61.3753 15.5357 61.8471 15.1496C62.3619 14.7636 63.0697 14.5706 63.9705 14.5706C64.7426 14.5706 65.3431 14.785 65.7721 15.214C66.244 15.6001 66.5228 16.1363 66.6086 16.8226C66.7373 17.466 66.63 18.1738 66.2869 18.9459L55.4127 43.9757C55.0267 44.9623 54.4905 45.6916 53.8041 46.1634C53.1178 46.6353 52.3242 46.8712 51.4234 46.8712Z" fill="#24666B"/>
<path d="M4.23851 46.4209C3.08032 46.4209 2.17951 46.1206 1.53607 45.52C0.935525 44.8766 0.635254 43.9758 0.635254 42.8176V4.66167C0.635254 3.50348 0.935525 2.62411 1.53607 2.02357C2.17951 1.38013 3.08032 1.05841 4.23851 1.05841H27.724C28.6249 1.05841 29.3112 1.29434 29.783 1.7662C30.2549 2.19515 30.4908 2.83859 30.4908 3.69651C30.4908 4.59733 30.2549 5.28366 29.783 5.75552C29.3112 6.22737 28.6249 6.4633 27.724 6.4633H7.06965V20.6833H26.3085C27.2522 20.6833 27.9385 20.9192 28.3675 21.3911C28.8393 21.8629 29.0753 22.5278 29.0753 23.3857C29.0753 24.2866 28.8393 24.9729 28.3675 25.4448C27.9385 25.8737 27.2522 26.0882 26.3085 26.0882H7.06965V41.016H27.724C28.6249 41.016 29.3112 41.2519 29.783 41.7238C30.2549 42.1956 30.4908 42.8605 30.4908 43.7184C30.4908 44.6192 30.2549 45.3056 29.783 45.7774C29.3112 46.2064 28.6249 46.4209 27.724 46.4209H4.23851Z" fill="#24666B"/>
<path d="M291.001 46.8712C290.1 46.8712 289.306 46.6567 288.62 46.2278C287.976 45.7559 287.462 45.0267 287.076 44.0401L277.617 19.0103C277.274 18.1524 277.167 17.4017 277.295 16.7582C277.424 16.0719 277.746 15.5357 278.26 15.1496C278.818 14.7636 279.526 14.5706 280.384 14.5706C281.156 14.5706 281.778 14.7636 282.25 15.1496C282.765 15.4928 283.194 16.1792 283.537 17.2087L291.966 40.9516H290.421L299.172 16.9513C299.473 16.1363 299.88 15.5357 300.395 15.1496C300.91 14.7636 301.574 14.5706 302.389 14.5706C303.204 14.5706 303.869 14.7636 304.384 15.1496C304.942 15.5357 305.349 16.1363 305.607 16.9513L314.164 40.9516H312.749L321.307 17.08C321.65 16.0934 322.079 15.4285 322.593 15.0853C323.151 14.7421 323.773 14.5706 324.459 14.5706C325.317 14.5706 325.961 14.785 326.39 15.214C326.862 15.643 327.119 16.2006 327.162 16.8869C327.248 17.5304 327.14 18.2382 326.84 19.0103L317.382 44.0401C316.996 44.9838 316.459 45.6916 315.773 46.1634C315.13 46.6353 314.379 46.8712 313.521 46.8712C312.62 46.8712 311.827 46.6353 311.14 46.1634C310.497 45.6916 309.982 44.9838 309.596 44.0401L300.588 19.6537H303.805L294.861 44.0401C294.518 44.9838 294.003 45.6916 293.317 46.1634C292.674 46.6353 291.901 46.8712 291.001 46.8712Z" fill="#FC9442"/>
<path d="M255.36 47C252.186 47 249.441 46.3351 247.124 45.0053C244.851 43.6755 243.071 41.7881 241.784 39.343C240.497 36.898 239.854 34.0239 239.854 30.721C239.854 28.1901 240.218 25.9381 240.947 23.9649C241.677 21.9916 242.706 20.2972 244.036 18.8817C245.409 17.4232 247.039 16.3294 248.926 15.6001C250.856 14.828 253.001 14.442 255.36 14.442C258.492 14.442 261.194 15.1068 263.468 16.4366C265.784 17.7664 267.586 19.6538 268.873 22.0989C270.159 24.501 270.803 27.3751 270.803 30.721C270.803 33.2089 270.438 35.461 269.709 37.4771C268.98 39.4932 267.929 41.209 266.556 42.6246C265.226 44.0401 263.596 45.134 261.666 45.9061C259.779 46.6354 257.677 47 255.36 47ZM255.36 41.9811C257.119 41.9811 258.663 41.5522 259.993 40.6943C261.323 39.8363 262.352 38.5709 263.082 36.898C263.854 35.225 264.24 33.166 264.24 30.721C264.24 27.0319 263.425 24.2437 261.795 22.3563C260.165 20.4688 258.02 19.5251 255.36 19.5251C253.559 19.5251 251.993 19.9541 250.663 20.812C249.334 21.627 248.283 22.871 247.51 24.5439C246.781 26.2169 246.417 28.2759 246.417 30.721C246.417 34.3671 247.232 37.1553 248.862 39.0857C250.492 41.016 252.658 41.9811 255.36 41.9811Z" fill="#FC9442"/>
<path d="M230.458 47C227.113 47 224.582 46.0348 222.866 44.1045C221.193 42.1313 220.356 39.3001 220.356 35.6111V3.88954C220.356 2.81714 220.635 2.00212 221.193 1.44447C221.751 0.886824 222.544 0.608002 223.574 0.608002C224.603 0.608002 225.397 0.886824 225.954 1.44447C226.555 2.00212 226.855 2.81714 226.855 3.88954V35.225C226.855 37.3698 227.284 38.9784 228.142 40.0508C229.043 41.0803 230.33 41.5951 232.003 41.5951C232.389 41.5951 232.732 41.5951 233.032 41.5951C233.332 41.5522 233.633 41.5093 233.933 41.4664C234.448 41.4235 234.812 41.5736 235.027 41.9168C235.241 42.2171 235.349 42.8605 235.349 43.8471C235.349 44.7479 235.156 45.4557 234.769 45.9705C234.383 46.4423 233.761 46.7426 232.904 46.8713C232.517 46.9142 232.11 46.9356 231.681 46.9356C231.252 46.9785 230.845 47 230.458 47Z" fill="#FC9442"/>
<path d="M185.141 46.8713C184.026 46.8713 183.147 46.571 182.503 45.9705C181.903 45.3699 181.603 44.4906 181.603 43.3324V4.66167C181.603 3.50348 181.903 2.62411 182.503 2.02357C183.147 1.38013 184.048 1.05841 185.206 1.05841H208.112C209.056 1.05841 209.742 1.29434 210.171 1.7662C210.643 2.19515 210.879 2.83859 210.879 3.69651C210.879 4.59733 210.643 5.28366 210.171 5.75552C209.742 6.22737 209.056 6.4633 208.112 6.4633H188.294V20.9407H206.825C207.683 20.9407 208.348 21.1766 208.82 21.6485C209.335 22.0774 209.592 22.7209 209.592 23.5788C209.592 24.4796 209.335 25.1659 208.82 25.6378C208.348 26.1096 207.683 26.3456 206.825 26.3456H188.294V43.3324C188.294 45.6916 187.243 46.8713 185.141 46.8713Z" fill="#FC9442"/>
</svg>
